<?xml version="1.0" encoding="utf-8"?>
<!-- Generator: Adobe Illustrator 24.3.0, SVG Export Plug-In . SVG Version: 6.00 Build 0)  -->
<svg version="1.1" id="Layer_1" xmlns="http://www.w3.org/2000/svg" xmlns:xlink="http://www.w3.org/1999/xlink" x="0px" y="0px"
	 viewBox="0 0 720 523.73" style="enable-background:new 0 0 720 523.73;" xml:space="preserve">
<style type="text/css">
	.st0{fill:#FFFFFF;}
	.st1{fill:#231F20;}
	.st2{fill:#68E1FD;}
	.st3{fill:#D1D3D4;}
	.st4{fill:#6095AB;}
	.st5{fill:#EF3A4C;}
	.st6{fill:#F7597F;}
</style>
<path class="st0" d="M111.3,419.8c0,0,13.09-30.9,16.51-42.97s2.41-47.91,2.41-47.91l9.47-24.75c0,0,66.41-53.95,85.73-65.61
	s42.67-29.8,49.51-25.77c6.83,4.03,5.64,12.88-2.41,21.73c-3.31,3.62-7.79,7.44-10.53,11.41c-2.23,3.25-5.02,13.45-2.34,17.07
	c3.21,4.33,11.52-1.96,15.99,2.31c2.35,2.25,2.21,6.19,0.64,9.03c-1.57,2.84-4.24,4.83-6.69,7.02
	c-6.53,5.65-12.07,12.75-17.27,19.55c-5.31,6.99-2.27,16.9-1.85,24.96c0.51,9.79,1.87,21.47-0.89,31.04
	c-4.43,15.29-30.4,34.21-41.67,43.88c-11.27,9.67-20.73,41.86-20.73,41.86L111.3,419.8z"/>
<path class="st1" d="M187.19,443.24h-0.18l-75.88-22.85c-0.17-0.05-0.3-0.17-0.37-0.33c-0.07-0.16-0.07-0.34,0-0.5
	c0.13-0.3,13.11-31,16.48-42.9c3.37-11.91,2.41-47.37,2.41-47.72c-0.01-0.08-0.01-0.15,0-0.23l9.47-24.77
	c0.04-0.1,0.1-0.19,0.18-0.25c0.66-0.54,66.68-54.11,85.82-65.66c4.83-2.93,10.01-6.3,15-9.56c15.94-10.42,29.69-19.4,35.14-16.2
	c2.48,1.36,4.2,3.79,4.65,6.58c0.7,4.66-1.75,10.35-6.92,16.04c-1.21,1.21-2.41,2.52-3.76,3.85c-2.45,2.3-4.71,4.8-6.73,7.49
	c-2.23,3.25-4.83,13.09-2.35,16.37c1.38,1.86,3.94,1.44,6.88,0.95s6.58-1.07,9.04,1.28c2.46,2.35,2.41,6.81,0.74,9.76
	c-1.55,2.47-3.55,4.63-5.88,6.38l-0.94,0.81c-6.46,5.59-12.07,12.68-17.17,19.45c-3.95,5.18-3.12,12.07-2.31,18.73
	c0.24,2.04,0.47,3.96,0.58,5.84c0.07,1.51,0.17,3.07,0.28,4.66c0.54,8.61,1.21,18.38-1.21,26.56
	c-3.74,12.99-22.68,28.46-35.28,38.76c-2.41,1.98-4.72,3.86-6.57,5.45c-11,9.43-20.44,41.26-20.53,41.57
	c-0.05,0.15-0.15,0.28-0.29,0.36C187.4,443.22,187.29,443.25,187.19,443.24z M112.12,419.41l74.66,22.48
	c1.38-4.54,10.17-32.52,20.74-41.57c1.86-1.59,4.17-3.48,6.59-5.47c12.44-10.15,31.24-25.51,34.88-38.12
	c2.32-7.99,1.7-17.64,1.21-26.17c-0.1-1.59-0.21-3.15-0.28-4.67c-0.1-1.84-0.33-3.74-0.57-5.76c-0.8-6.58-1.7-14.03,2.54-19.6
	c5.19-6.83,10.79-13.97,17.35-19.63l0.94-0.82c2.22-1.66,4.12-3.71,5.61-6.04c1.4-2.55,1.68-6.21-0.52-8.31
	c-2.2-2.1-5.07-1.44-8.01-0.95c-2.93,0.48-6.24,1.01-8.05-1.44c-2.97-4,0.1-14.49,2.33-17.76c2.05-2.76,4.35-5.33,6.87-7.67
	c1.32-1.32,2.57-2.56,3.71-3.82c4.83-5.33,7.24-10.87,6.62-15.03c-0.37-2.46-1.87-4.6-4.06-5.77c-4.83-2.83-19.59,6.83-33.88,16.18
	c-4.99,3.26-10.15,6.64-15.02,9.58c-18.67,11.28-82.29,62.79-85.55,65.47l-9.36,24.5c0.07,2.67,0.91,36.22-2.41,47.97
	C125.25,388.01,113.98,414.98,112.12,419.41z"/>
<path class="st0" d="M175.44,180.76h84.54c3.41,0,6.17,2.76,6.17,6.17v180.76c0,3.41-2.76,6.17-6.17,6.17h-84.54
	c-3.41,0-6.17-2.76-6.17-6.17V186.93C169.27,183.52,172.03,180.76,175.44,180.76z"/>
<path class="st1" d="M259.97,374.48h-84.52c-3.75,0-6.79-3.04-6.79-6.79V186.94c0.03-3.72,3.06-6.73,6.79-6.73h84.52
	c3.74,0.01,6.77,3.04,6.77,6.79v180.69C266.75,371.44,263.72,374.47,259.97,374.48z M175.45,181.43c-3.08,0-5.58,2.5-5.58,5.58
	v180.69c0,3.08,2.5,5.58,5.58,5.58h84.52c3.08-0.01,5.57-2.5,5.57-5.58V186.94c-0.03-3.05-2.51-5.51-5.57-5.52H175.45z"/>
<rect x="174.56" y="198.23" class="st2" width="86.7" height="148.62"/>
<path class="st3" d="M226.96,368.59h-16.49c-2.43,0-4.4-1.97-4.4-4.4v-6.3c0-2.43,1.97-4.4,4.4-4.41h16.49
	c2.43,0.01,4.4,1.98,4.4,4.41v6.3C231.36,366.62,229.39,368.59,226.96,368.59z M210.47,354.69c-1.76,0.01-3.19,1.44-3.19,3.2v6.3
	c0,1.76,1.43,3.19,3.19,3.19h16.49c1.76,0,3.19-1.43,3.19-3.19v-6.3c0-1.76-1.43-3.19-3.19-3.2H210.47z"/>
<path class="st3" d="M224.93,190.02h-24.68c-0.33,0-0.6-0.27-0.6-0.6s0.27-0.6,0.6-0.6h24.68c0.33,0,0.6,0.27,0.6,0.6
	S225.27,190.02,224.93,190.02z"/>
<path class="st3" d="M231.71,189.73h-3.31c-0.33,0-0.6-0.27-0.6-0.6s0.27-0.6,0.6-0.6h3.31c0.33,0,0.6,0.27,0.6,0.6
	S232.04,189.73,231.71,189.73z"/>
<path class="st0" d="M256.86,265.31c-1.24,5.71,2.38,11.34,8.09,12.58c1.24,0.27,2.51,0.31,3.77,0.13c1.94-0.3,3.77-1.08,5.34-2.26
	c2.92-2.12,4.76-5.41,5.05-9.01c0.34-5.81-4.56-10.87-10.26-11.57C263.5,254.53,257.91,260.44,256.86,265.31z"/>
<path class="st1" d="M267.26,278.72c-6.18,0.02-11.21-4.97-11.24-11.15c0-0.8,0.08-1.6,0.25-2.39c1.21-5.37,7.05-11.3,12.64-10.61
	c6.29,0.77,11.15,6.25,10.79,12.21c-0.29,3.77-2.22,7.23-5.29,9.45c-1.65,1.25-3.57,2.08-5.61,2.41
	C268.29,278.71,267.77,278.74,267.26,278.72z M268.02,255.78c-4.64,0-9.58,5.11-10.57,9.66l0,0c-1.16,5.39,2.28,10.7,7.67,11.86
	c1.15,0.25,2.34,0.29,3.51,0.12c1.84-0.29,3.58-1.03,5.07-2.15c2.79-2.01,4.55-5.14,4.83-8.56c0.3-5.24-4.15-10.25-9.73-10.94
	c-0.27-0.02-0.53-0.04-0.78-0.04V255.78z M256.86,265.36"/>
<path class="st0" d="M253.09,302.96c-1.4,1.99-1.81,4.51-1.11,6.85c0.56,1.35,1.42,2.55,2.52,3.51c2.91,2.75,6.88,4.7,10.87,4.11
	c2.42-0.5,4.69-1.54,6.65-3.04c3.5-2.41,6.86-5.46,8.02-9.53c1.68-5.9-2.6-14.49-9.51-13.67
	C264.8,291.9,256.12,298.26,253.09,302.96z"/>
<path class="st1" d="M263.9,318.14c-3.72-0.15-7.25-1.71-9.85-4.37c-1.18-1.02-2.09-2.31-2.68-3.76c-0.75-2.51-0.31-5.24,1.21-7.38
	l0,0c3.1-4.83,11.94-11.3,17.82-12.07c2.87-0.33,5.71,0.84,7.51,3.1c2.63,3.14,3.62,7.33,2.67,11.31c-1.01,3.62-3.62,6.7-8.25,9.87
	c-2.04,1.56-4.41,2.63-6.92,3.14C264.91,318.07,264.4,318.12,263.9,318.14z M253.6,303.29c-1.3,1.83-1.69,4.16-1.05,6.32
	c0.54,1.27,1.36,2.39,2.41,3.28c3.18,3.01,6.93,4.44,10.32,3.94c2.32-0.49,4.51-1.49,6.4-2.93c4.37-3.01,6.85-5.93,7.78-9.2
	c0.85-3.59-0.04-7.37-2.41-10.2c-1.54-1.94-3.97-2.96-6.44-2.69c-5.49,0.69-14.06,7-16.97,11.5H253.6z"/>
<path class="st0" d="M256.61,327.6c-1.35,0.93-2.47,2.14-3.3,3.55c-1.65,3.35-1.23,7.35,1.09,10.28c2.35,2.85,5.74,4.63,9.42,4.94
	c4.33,0.53,8.69-0.82,11.97-3.71c3.25-2.96,4.7-7.42,3.82-11.72C276.99,319.85,263.51,322.58,256.61,327.6z"/>
<path class="st1" d="M265.56,347.07c-0.6,0-1.21,0-1.82-0.1c-3.84-0.33-7.39-2.19-9.83-5.18c-2.44-3.12-2.88-7.37-1.12-10.93
	c0.86-1.49,2.05-2.77,3.47-3.74l0,0c4.66-3.39,12.24-5.77,17.7-3.74c3.23,1.22,5.58,4.03,6.22,7.43c0.96,4.52-0.56,9.21-3.98,12.3
	C273.26,345.7,269.48,347.11,265.56,347.07z M256.97,328.1c-1.27,0.87-2.34,2.02-3.13,3.34c-1.55,3.15-1.15,6.91,1.03,9.66
	c2.24,2.72,5.49,4.42,9.01,4.71c4.17,0.51,8.35-0.79,11.51-3.55c3.11-2.8,4.49-7.04,3.62-11.13c-0.53-3-2.61-5.5-5.46-6.58
	c-5.07-1.87-12.18,0.4-16.58,3.62L256.97,328.1z"/>
<polygon class="st2" points="115.12,390.8 123.78,373.71 205.7,406.51 196.45,421.4 "/>
<polygon class="st1" points="203.09,416.47 114.31,382.65 84.13,430.06 181.34,466.9 "/>
<path class="st1" d="M181.34,467.5c-0.07,0.01-0.14,0.01-0.21,0l-97.23-36.83c-0.17-0.07-0.3-0.2-0.35-0.37
	c-0.08-0.16-0.08-0.35,0-0.52l30.19-47.39c0.15-0.24,0.46-0.34,0.72-0.24l88.76,33.81c0.15,0.06,0.28,0.18,0.35,0.33
	c0.07,0.15,0.07,0.33,0,0.48l-21.73,50.41C181.75,467.37,181.56,467.49,181.34,467.5z M85,429.76l96,36.37l21.25-49.31l-87.72-33.42
	L85,429.76z"/>
<path class="st0" d="M130.39,329.95c0,0,0.6-51.78,6.64-62.05s25.09-53.44,30.19-53.75c5.1-0.3,10.41,15.32,5.93,29.22
	c-2.63,8.19-6.5,15.93-11.47,22.94c0,0,15,16,6.83,44.68"/>
<path class="st1" d="M130.39,330.57L130.39,330.57c-0.33-0.01-0.6-0.28-0.59-0.62c0,0,0,0,0,0c0-2.11,0.68-52.05,6.73-62.34
	c1.84-3.14,4.9-9.35,8.45-16.55c10.75-21.81,18.63-37.28,22.27-37.43c1.33-0.1,2.69,0.71,3.92,2.31c3.9,5.05,6.04,17.07,2.51,27.66
	c-2.63,8.09-6.42,15.75-11.27,22.74c2.17,2.62,14.12,18.61,6.65,44.87c-0.09,0.33-0.43,0.53-0.77,0.44
	c-0.33-0.09-0.53-0.43-0.44-0.77c4.17-14.63,2.13-25.84-0.33-32.6c-1.4-4.18-3.56-8.06-6.38-11.45c-0.19-0.22-0.19-0.55,0-0.77
	c4.93-6.97,8.76-14.65,11.37-22.77c3.33-10.22,1.39-21.73-2.32-26.56c-0.63-1.04-1.7-1.72-2.91-1.85
	c-3.2,0.19-14.49,23.12-21.25,36.83c-3.55,7.24-6.63,13.45-8.45,16.63c-5.89,10.01-6.56,61.23-6.56,61.74
	C130.98,330.38,130.7,330.6,130.39,330.57z"/>
<circle class="st0" cx="114.62" cy="417.08" r="6.34"/>
<path class="st3" d="M112.77,266.14c-0.12,0-0.23-0.03-0.33-0.1l-31.77-20.76c-0.28-0.18-0.36-0.56-0.18-0.84
	c0.18-0.28,0.56-0.36,0.84-0.18l31.78,20.76c0.28,0.18,0.36,0.56,0.18,0.85C113.18,266.05,112.98,266.15,112.77,266.14z"/>
<path class="st3" d="M99.41,305.88L99.41,305.88l-44.6-2.06c-0.33-0.01-0.59-0.29-0.58-0.63c0,0,0,0,0,0
	c0.03-0.33,0.3-0.58,0.63-0.58l44.63,2.06c0.33,0.03,0.59,0.31,0.58,0.64C100.04,305.65,99.75,305.9,99.41,305.88z"/>
<path class="st3" d="M314.76,261.52c-0.25-0.01-0.48-0.16-0.57-0.4c-0.11-0.31,0.05-0.66,0.36-0.77l26.21-9.66
	c0.31-0.11,0.66,0.05,0.77,0.36c0.12,0.3-0.03,0.65-0.33,0.77c-0.01,0-0.01,0-0.02,0.01l-26.23,9.66
	C314.9,261.51,314.83,261.52,314.76,261.52z"/>
<path class="st3" d="M346.31,329.19h-0.14l-29.05-7.08c-0.32-0.08-0.52-0.4-0.45-0.72c0.08-0.32,0.4-0.53,0.73-0.45
	c0,0,0.01,0,0.01,0l29.05,7.08c0.32,0.08,0.52,0.4,0.45,0.72C346.83,329.01,346.59,329.19,346.31,329.19z"/>
<path class="st3" d="M300.27,414.4c-0.17,0-0.34-0.08-0.46-0.21l-16.99-19.83c-0.22-0.24-0.2-0.62,0.05-0.84
	c0,0,0.01-0.01,0.01-0.01c0.24-0.23,0.62-0.23,0.86,0l16.99,19.83c0.22,0.24,0.2,0.62-0.05,0.84c0,0-0.01,0.01-0.01,0.01
	C300.56,414.31,300.42,414.38,300.27,414.4z"/>
<path class="st3" d="M87.98,358.93c-0.27,0-0.52-0.18-0.59-0.45c-0.08-0.32,0.11-0.65,0.43-0.74c0,0,0,0,0,0l16.4-4.35
	c0.32-0.08,0.65,0.11,0.74,0.43c0,0,0,0,0,0c0.08,0.32-0.1,0.65-0.42,0.74l-16.4,4.35L87.98,358.93z"/>
<g>
	<g>
		<g>
			<g>
				<g>
					<g>
						<g>
							<g>
								<g>
									<path class="st4" d="M663.89,145.61c-1.51-3.23-3.13-6.48-4.82-9.65l-0.46-0.87l1.73-0.92l0.46,0.87
										c1.71,3.2,3.34,6.48,4.86,9.74l0.42,0.89l-1.78,0.83L663.89,145.61z M653.75,126.59c-1.87-3.1-3.83-6.14-5.83-9.06
										l-0.55-0.81l1.62-1.11l0.55,0.81c2.02,2.94,4,6.02,5.89,9.15l0.51,0.84l-1.68,1.01L653.75,126.59z M518.65,157.9
										l-0.98,0.05l-0.09-1.96l0.98-0.05c1.9-0.09,3.81-0.43,5.67-1.02c0,0,0,0,0.01,0c1.42-0.45,2.84-1.05,4.23-1.79l0.87-0.46
										l0.92,1.73l-0.87,0.46c-1.49,0.79-3.02,1.44-4.55,1.93c0,0,0,0-0.01,0C522.8,157.43,520.72,157.81,518.65,157.9z
										 M536.02,147.52l0.61-0.77c2-2.53,3.02-5.72,3.02-9.5l0-0.98l1.96,0l0,0.98c0,4.23-1.16,7.84-3.44,10.72l-0.61,0.77
										L536.02,147.52z M507.68,155.84c-3.25-1.39-6.37-3.44-9.27-6.1l-0.72-0.66l1.33-1.45l0.72,0.66
										c2.74,2.51,5.67,4.45,8.72,5.75l0.9,0.39l-0.77,1.8L507.68,155.84z M641.56,108.85c-2.25-2.87-4.57-5.64-6.92-8.24
										l-0.66-0.73l1.46-1.31l0.66,0.73c2.37,2.63,4.73,5.44,7.01,8.34l0.6,0.77l-1.54,1.21L641.56,108.85z M537.55,127.07
										c-1.19-3.08-2.85-6.23-4.95-9.35l-0.55-0.81l1.63-1.09l0.55,0.81c2.18,3.25,3.91,6.53,5.15,9.74l0.35,0.92l-1.83,0.71
										L537.55,127.07z M491.31,141.28c-1.98-3.03-3.66-6.33-5-9.81l-0.35-0.92l1.83-0.7l0.35,0.92c1.29,3.35,2.9,6.53,4.81,9.44
										l0.54,0.82l-1.64,1.07L491.31,141.28z M627.15,92.91c-2.64-2.5-5.36-4.87-8.1-7.05l-0.77-0.61l1.22-1.54l0.77,0.61
										c2.78,2.21,5.55,4.62,8.23,7.16l0.71,0.68l-1.35,1.42L627.15,92.91z M525.94,109.4c-2.37-2.53-5.01-4.97-7.83-7.26
										l-0.76-0.62l1.24-1.52l0.76,0.62c2.9,2.35,5.6,4.85,8.03,7.44l0.67,0.72l-1.43,1.34L525.94,109.4z M483.59,121.81
										l-0.15-0.97c-0.23-1.43-0.4-2.88-0.5-4.29c-0.17-2.26-0.14-4.53,0.07-6.74l0.09-0.98l1.95,0.19l-0.09,0.98
										c-0.2,2.1-0.22,4.25-0.06,6.4c0.1,1.36,0.26,2.75,0.48,4.13l0.15,0.97L483.59,121.81z M610.35,79.6
										c-3.02-1.96-6.15-3.76-9.28-5.35l-0.88-0.44l0.89-1.75l0.87,0.44c3.19,1.62,6.38,3.45,9.46,5.45l0.82,0.53l-1.07,1.65
										L610.35,79.6z M509.4,95.92c-2.98-1.87-6.13-3.61-9.37-5.18l-0.88-0.43l0.85-1.77l0.88,0.43c3.31,1.59,6.52,3.37,9.56,5.28
										l0.83,0.52l-1.04,1.66L509.4,95.92z M591.27,69.95c-3.34-1.24-6.78-2.29-10.22-3.13l-0.95-0.23l0.46-1.91l0.95,0.23
										c3.52,0.85,7.03,1.93,10.45,3.19l0.92,0.34l-0.68,1.84L591.27,69.95z M485.26,99.98l0.36-0.91
										c1.34-3.34,3.17-6.57,5.43-9.61l0.59-0.79l1.57,1.17l-0.59,0.79c-2.16,2.9-3.91,5.99-5.18,9.17l-0.36,0.91L485.26,99.98z
										 M570.51,64.93c-3.53-0.44-7.13-0.7-10.69-0.79l-0.98-0.02l0.05-1.96l0.98,0.02c3.62,0.09,7.29,0.36,10.89,0.8l0.97,0.12
										l-0.24,1.95L570.51,64.93z M490.14,86.61c-3.32-1.19-6.77-2.24-10.26-3.11l-0.95-0.24l0.47-1.9l0.95,0.24
										c3.55,0.89,7.06,1.95,10.45,3.16l0.92,0.33l-0.66,1.85L490.14,86.61z M497.82,82.06l0.74-0.65
										c2.66-2.32,5.64-4.49,8.87-6.46l0.84-0.51l1.02,1.68l-0.84,0.51c-3.13,1.91-6.03,4.01-8.6,6.26l-0.74,0.64L497.82,82.06z
										 M549.1,64.39c-3.58,0.26-7.16,0.71-10.64,1.33l-0.97,0.17l-0.34-1.93l0.97-0.17c3.54-0.63,7.19-1.08,10.84-1.35l0.98-0.07
										l0.14,1.96L549.1,64.39z M516.28,70.34l0.9-0.39c3.27-1.4,6.74-2.65,10.3-3.68l0.94-0.28l0.55,1.88l-0.94,0.27
										c-3.49,1.02-6.88,2.23-10.07,3.6l-0.9,0.39L516.28,70.34z M469.38,81.44c-3.46-0.46-7.05-0.71-10.67-0.74l-0.98-0.01
										l0.02-1.96l0.98,0.01c3.7,0.03,7.37,0.29,10.91,0.76l0.97,0.13l-0.26,1.94L469.38,81.44z M376.59,107.23l0.82-0.54
										c3.02-1.97,6.13-3.9,9.25-5.71l0.85-0.49l0.99,1.7l-0.85,0.49c-3.09,1.8-6.17,3.71-9.17,5.66l-0.82,0.54L376.59,107.23z
										 M395.33,96.2l0.87-0.45c3.26-1.68,6.56-3.26,9.81-4.7l0.9-0.4l0.8,1.79l-0.9,0.4c-3.21,1.43-6.48,2.99-9.71,4.66
										l-0.87,0.45L395.33,96.2z M448.01,81.22c-3.46,0.36-7.03,0.9-10.6,1.62l-0.96,0.19l-0.39-1.92l0.96-0.19
										c3.64-0.73,7.27-1.29,10.79-1.65l0.98-0.1l0.2,1.95L448.01,81.22z M415.17,87.28l0.92-0.34c3.45-1.28,6.88-2.41,10.34-3.42
										l0.94-0.27l0.55,1.88l-0.94,0.27c-3.42,0.99-6.8,2.11-10.21,3.37l-0.92,0.34L415.17,87.28z"/>
								</g>
							</g>
						</g>
					</g>
				</g>
			</g>
		</g>
	</g>
</g>
<g>
	<g>
		<g>
			<g>
				<g>
					<g>
						<g>
							<g>
								<path class="st5" d="M368.25,134.74l-18-3.17c0,0-50.47,32.4-51.38,32.6c-0.91,0.2-34.43,7.47-34.43,7.47l28.58-25.92
									l54.7-32.48L368.25,134.74z"/>
							</g>
						</g>
					</g>
				</g>
			</g>
		</g>
	</g>
	<g>
		<g>
			<g>
				<g>
					<g>
						<g>
							<g>
								<polygon class="st6" points="339.47,80.29 264.45,171.64 347.72,113.23 								"/>
							</g>
						</g>
					</g>
				</g>
			</g>
		</g>
	</g>
	<g>
		<g>
			<g>
				<g>
					<g>
						<g>
							<g>
								<polygon class="st6" points="350.25,131.57 359.21,166.51 264.45,171.64 								"/>
							</g>
						</g>
					</g>
				</g>
			</g>
		</g>
	</g>
</g>
</svg>
